<svg width="155" height="62" viewBox="0 0 155 62" fill="none" xmlns="http://www.w3.org/2000/svg">
<path d="M18.3425 47.3313C18.1732 47.3308 18.0065 47.2873 17.8568 47.2044L12.5333 44.2731L7.20976 47.2044C7.03739 47.299 6.84322 47.3412 6.64914 47.3264C6.45506 47.3116 6.26879 47.2403 6.11133 47.1205C5.95388 47.0008 5.8315 46.8374 5.75799 46.6487C5.68449 46.46 5.66278 46.2536 5.69532 46.0527L6.71156 39.8445L2.40427 35.4477C2.26493 35.3052 2.1664 35.1248 2.11981 34.9268C2.07322 34.7287 2.08042 34.521 2.1406 34.3271C2.20078 34.1331 2.31154 33.9607 2.46038 33.8291C2.60921 33.6976 2.7902 33.6123 2.98289 33.5828L8.93518 32.6772L11.5975 27.0291C11.6934 26.8583 11.8302 26.7167 11.9945 26.6183C12.1587 26.5199 12.3446 26.4681 12.5338 26.4681C12.723 26.4681 12.9089 26.5199 13.0732 26.6183C13.2374 26.7167 13.3743 26.8583 13.4702 27.0291L16.1314 32.6772L22.0837 33.5828C22.2764 33.6123 22.4574 33.6976 22.6062 33.8291C22.755 33.9607 22.8658 34.1331 22.926 34.3271C22.9862 34.521 22.9934 34.7287 22.9468 34.9268C22.9002 35.1248 22.8017 35.3052 22.6623 35.4477L18.355 39.8445L19.3723 46.0527C19.398 46.2096 19.3907 46.3705 19.3508 46.5242C19.311 46.6778 19.2396 46.8205 19.1416 46.9423C19.0436 47.064 18.9215 47.1619 18.7836 47.2291C18.6458 47.2963 18.4945 47.3312 18.3425 47.3313Z" fill="#AD4E4E"/>
<path d="M47.4091 47.3313C47.2398 47.3308 47.0732 47.2873 46.9235 47.2044L41.5999 44.2731L36.2764 47.2044C36.104 47.299 35.9099 47.3412 35.7158 47.3264C35.5217 47.3116 35.3354 47.2403 35.178 47.1205C35.0205 47.0008 34.8981 46.8374 34.8246 46.6487C34.7511 46.46 34.7294 46.2536 34.762 46.0527L35.7782 39.8445L31.4709 35.4477C31.3316 35.3052 31.2331 35.1248 31.1865 34.9268C31.1399 34.7287 31.1471 34.521 31.2072 34.3271C31.2674 34.1331 31.3782 33.9607 31.527 33.8291C31.6759 33.6976 31.8568 33.6123 32.0495 33.5828L38.0018 32.6772L40.6641 27.0291C40.76 26.8583 40.8969 26.7167 41.0611 26.6183C41.2253 26.5199 41.4113 26.4681 41.6005 26.4681C41.7897 26.4681 41.9756 26.5199 42.1398 26.6183C42.3041 26.7167 42.4409 26.8583 42.5368 27.0291L45.1981 32.6772L51.1503 33.5828C51.343 33.6123 51.524 33.6976 51.6729 33.8291C51.8217 33.9607 51.9325 34.1331 51.9926 34.3271C52.0528 34.521 52.06 34.7287 52.0134 34.9268C51.9668 35.1248 51.8683 35.3052 51.729 35.4477L47.4217 39.8445L48.439 46.0527C48.4647 46.2096 48.4573 46.3705 48.4175 46.5242C48.3776 46.6778 48.3062 46.8205 48.2083 46.9423C48.1103 47.064 47.9881 47.1619 47.8503 47.2291C47.7124 47.2963 47.5612 47.3312 47.4091 47.3313Z" fill="#AD4E4E"/>
<path d="M85.9398 46.1367C85.6831 46.136 85.4304 46.073 85.2035 45.953L77.1333 41.7097L69.063 45.953C68.8017 46.0899 68.5074 46.1511 68.2132 46.1296C67.9189 46.1082 67.6366 46.005 67.3979 45.8316C67.1592 45.6583 66.9736 45.4217 66.8622 45.1486C66.7508 44.8754 66.7179 44.5766 66.7672 44.2857L68.3078 35.2987L61.7781 28.9337C61.5669 28.7275 61.4175 28.4663 61.3469 28.1797C61.2763 27.893 61.2872 27.5923 61.3784 27.3116C61.4696 27.0308 61.6375 26.7811 61.8632 26.5907C62.0888 26.4004 62.3632 26.2768 62.6553 26.2342L71.6787 24.9232L75.7146 16.7468C75.86 16.4996 76.0675 16.2946 76.3164 16.1522C76.5654 16.0097 76.8472 15.9348 77.1341 15.9348C77.4209 15.9348 77.7028 16.0097 77.9517 16.1522C78.2007 16.2946 78.4081 16.4996 78.5535 16.7468L82.5879 24.9232L91.6113 26.2342C91.9034 26.2768 92.1778 26.4004 92.4034 26.5907C92.629 26.7811 92.7969 27.0308 92.8882 27.3116C92.9794 27.5923 92.9903 27.893 92.9197 28.1797C92.849 28.4663 92.6997 28.7275 92.4884 28.9337L85.9588 35.2987L87.5009 44.2857C87.5399 44.5129 87.5288 44.7459 87.4684 44.9683C87.408 45.1907 87.2997 45.3973 87.1512 45.5736C87.0027 45.7498 86.8175 45.8915 86.6085 45.9888C86.3995 46.0861 86.1703 46.1365 85.9398 46.1367Z" fill="#AD4E4E"/>
<path d="M118.476 47.3313C118.306 47.3308 118.14 47.2873 117.99 47.2044L112.667 44.2731L107.343 47.2044C107.171 47.299 106.977 47.3412 106.782 47.3264C106.588 47.3116 106.402 47.2403 106.245 47.1205C106.087 47.0008 105.965 46.8374 105.891 46.6487C105.818 46.46 105.796 46.2536 105.829 46.0527L106.845 39.8445L102.538 35.4477C102.398 35.3052 102.3 35.1248 102.253 34.9268C102.207 34.7287 102.214 34.521 102.274 34.3271C102.334 34.1331 102.445 33.9607 102.594 33.8291C102.743 33.6976 102.923 33.6123 103.116 33.5828L109.068 32.6772L111.731 27.0291C111.827 26.8583 111.964 26.7167 112.128 26.6183C112.292 26.5199 112.478 26.4681 112.667 26.4681C112.856 26.4681 113.042 26.5199 113.206 26.6183C113.371 26.7167 113.508 26.8583 113.603 27.0291L116.265 32.6772L122.217 33.5828C122.41 33.6123 122.591 33.6976 122.74 33.8291C122.888 33.9607 122.999 34.1331 123.059 34.3271C123.119 34.521 123.127 34.7287 123.08 34.9268C123.033 35.1248 122.935 35.3052 122.796 35.4477L118.488 39.8445L119.506 46.0527C119.531 46.2096 119.524 46.3705 119.484 46.5242C119.444 46.6778 119.373 46.8205 119.275 46.9423C119.177 47.064 119.055 47.1619 118.917 47.2291C118.779 47.2963 118.628 47.3312 118.476 47.3313Z" fill="#AD4E4E"/>
<path d="M147.542 47.3313C147.373 47.3308 147.206 47.2873 147.057 47.2044L141.733 44.2731L136.41 47.2044C136.237 47.299 136.043 47.3412 135.849 47.3264C135.655 47.3116 135.469 47.2403 135.311 47.1205C135.154 47.0008 135.031 46.8374 134.958 46.6487C134.884 46.46 134.863 46.2536 134.895 46.0527L135.912 39.8445L131.604 35.4477C131.465 35.3052 131.366 35.1248 131.32 34.9268C131.273 34.7287 131.28 34.521 131.341 34.3271C131.401 34.1331 131.511 33.9607 131.66 33.8291C131.809 33.6976 131.99 33.6123 132.183 33.5828L138.135 32.6772L140.797 27.0291C140.893 26.8583 141.03 26.7167 141.194 26.6183C141.359 26.5199 141.545 26.4681 141.734 26.4681C141.923 26.4681 142.109 26.5199 142.273 26.6183C142.437 26.7167 142.574 26.8583 142.67 27.0291L145.331 32.6772L151.284 33.5828C151.476 33.6123 151.657 33.6976 151.806 33.8291C151.955 33.9607 152.066 34.1331 152.126 34.3271C152.186 34.521 152.193 34.7287 152.147 34.9268C152.1 35.1248 152.002 35.3052 151.862 35.4477L147.555 39.8445L148.572 46.0527C148.598 46.2096 148.591 46.3705 148.551 46.5242C148.511 46.6778 148.44 46.8205 148.342 46.9423C148.244 47.064 148.121 47.1619 147.984 47.2291C147.846 47.2963 147.694 47.3312 147.542 47.3313Z" fill="#AD4E4E"/>
</svg>
